<?xml version="1.0" standalone="no"?>
<!DOCTYPE svg PUBLIC "-//W3C//DTD SVG 20010904//EN"
 "http://www.w3.org/TR/2001/REC-SVG-20010904/DTD/svg10.dtd">
<svg version="1.0" xmlns="http://www.w3.org/2000/svg"
 width="200px" height="70px" viewBox="0 0 534.000000 162.000000"
 preserveAspectRatio="xMidYMid meet">
<metadata>
Created by potrace 1.10, written by Peter Selinger 2001-2011
</metadata>
<g transform="translate(0.000000,162.000000) scale(0.100000,-0.100000)"
fill="#000000" stroke="none">
<path d="M235 1138 l-36 -33 -1 -371 0 -371 25 -26 24 -27 215 0 c118 0 217
-2 219 -4 2 -2 3 -34 1 -70 -4 -65 -4 -65 -35 -68 -27 -2 -33 -8 -35 -31 l-3
-27 201 0 201 0 -3 28 c-3 24 -7 27 -40 26 -22 -1 -38 4 -38 10 -1 6 -2 40 -3
75 l-2 64 219 -2 c214 -2 219 -2 242 20 l24 22 0 382 0 381 -27 25 -28 24
-542 3 -543 2 -35 -32z m1108 -34 c16 -6 17 -38 17 -375 l0 -369 -222 -1
c-621 -2 -872 2 -880 14 -4 7 -8 169 -8 361 0 289 2 352 14 365 13 14 72 16
538 14 288 -1 532 -5 541 -9z m-460 -859 c-1 -38 -2 -72 -2 -75 -1 -8 -129 -5
-137 3 -4 3 -7 36 -8 71 -2 74 -5 71 89 71 l60 0 -2 -70z"/>
<path d="M855 933 c-4 -16 -13 -40 -21 -55 -8 -14 -14 -33 -14 -41 0 -9 -8
-30 -17 -49 -9 -18 -22 -45 -30 -60 -7 -14 -13 -34 -13 -45 0 -10 -7 -27 -15
-37 -8 -11 -15 -27 -15 -37 0 -9 -7 -22 -16 -29 -19 -17 -15 -74 6 -78 14 -2
21 10 74 130 9 20 16 41 16 46 0 6 6 23 14 39 25 48 46 100 46 115 0 7 7 22
15 32 8 11 15 28 15 37 0 10 5 19 12 21 21 7 0 38 -26 38 -20 0 -27 -6 -31
-27z"/>
<path d="M585 889 c-4 -5 -17 -14 -28 -20 -12 -5 -49 -25 -82 -44 -33 -20 -75
-42 -92 -50 -18 -9 -33 -22 -33 -30 0 -8 -1 -18 -1 -22 -2 -7 66 -49 121 -76
14 -6 31 -17 38 -24 7 -7 19 -13 26 -13 8 0 19 -7 26 -15 7 -8 25 -15 41 -15
48 0 38 34 -18 62 -27 13 -50 25 -53 28 -3 3 -29 17 -58 30 -28 14 -51 29 -49
34 3 10 40 31 139 82 58 30 79 50 72 69 -7 17 -40 20 -49 4z"/>
<path d="M975 889 c-11 -16 24 -48 85 -77 30 -15 57 -29 60 -32 3 -3 18 -12
34 -20 16 -8 31 -20 33 -26 2 -5 -32 -28 -74 -49 -43 -21 -79 -42 -81 -47 -2
-4 -12 -8 -22 -8 -27 0 -45 -27 -31 -44 9 -11 20 -12 44 -5 18 5 34 14 35 19
2 6 10 10 17 10 8 0 20 6 27 13 13 11 37 25 121 69 20 11 40 24 43 29 7 11
-14 49 -27 49 -6 0 -48 23 -94 50 -46 28 -86 50 -90 50 -3 0 -13 7 -21 15 -18
17 -50 20 -59 4z"/>
<path d="M2502 964 c-28 -19 -24 -36 9 -44 l24 -6 5 -210 c6 -237 8 -247 69
-242 42 4 57 34 19 40 l-23 3 -3 222 -2 223 -30 15 c-36 19 -40 19 -68 -1z"/>
<path d="M4732 968 c-22 -22 -14 -46 18 -53 l30 -7 0 -213 c0 -235 1 -239 62
-233 43 4 52 35 11 40 l-28 3 4 220 c4 240 5 237 -54 249 -19 4 -35 2 -43 -6z"/>
<path d="M3112 868 c-20 -20 -13 -38 18 -44 l30 -6 -3 -175 c-2 -159 0 -177
16 -187 32 -20 38 9 31 160 -4 90 -3 144 4 148 5 3 36 -35 67 -84 32 -49 65
-92 73 -95 18 -7 41 16 96 97 22 32 48 66 59 75 19 18 19 16 12 -112 -5 -86
-3 -139 4 -158 10 -26 15 -28 53 -25 54 4 66 32 18 41 l-31 7 3 157 3 158 28
3 c38 5 33 36 -7 40 -45 5 -74 -6 -90 -36 -8 -15 -26 -40 -40 -57 -38 -45 -40
-47 -65 -87 -12 -21 -27 -38 -32 -38 -5 0 -16 12 -26 28 -10 15 -22 32 -28 38
-5 6 -17 22 -25 34 -45 68 -93 120 -109 120 -11 0 -25 2 -33 5 -7 3 -19 0 -26
-7z"/>
<path d="M1575 860 c-9 -15 14 -40 36 -40 17 0 19 -12 21 -177 l3 -178 140 0
c139 0 140 0 143 24 5 34 -6 71 -23 71 -7 0 -15 -12 -17 -27 l-3 -27 -92 1
c-50 0 -95 3 -100 6 -4 3 -7 75 -5 161 3 155 3 156 26 156 28 0 36 8 29 26 -6
17 -148 20 -158 4z"/>
<path d="M4072 858 c-17 -17 -15 -55 4 -62 23 -9 31 -8 47 9 15 14 12 55 -3
55 -5 0 -14 2 -22 5 -7 3 -19 0 -26 -7z"/>
<path d="M3675 840 c-7 -23 10 -50 31 -50 21 0 43 28 37 50 -7 28 -59 28 -68
0z"/>
<path d="M2030 717 c-35 -12 -76 -61 -86 -104 -9 -33 26 -112 60 -137 40 -31
126 -29 161 4 14 13 25 30 25 37 0 22 -32 28 -46 8 -8 -10 -31 -19 -56 -22
-35 -4 -48 0 -66 17 -43 41 -27 54 73 60 l90 5 -1 43 c-1 75 -73 117 -154 89z
m98 -58 c12 -11 20 -24 17 -30 -7 -10 -128 -13 -138 -2 -4 3 3 17 15 30 27 29
76 30 106 2z"/>
<path d="M2323 719 c-51 -15 -83 -65 -83 -131 0 -48 4 -60 34 -94 32 -38 36
-39 95 -38 50 1 66 5 86 24 45 42 23 77 -26 41 -38 -28 -92 -28 -119 1 -38 41
-24 52 75 58 l90 5 3 33 c4 44 -29 88 -76 102 -20 5 -39 10 -42 9 -3 0 -19 -5
-37 -10z m96 -61 c11 -11 18 -25 15 -30 -3 -4 -34 -8 -69 -8 -35 0 -66 4 -69
8 -11 18 35 52 69 52 22 0 41 -8 54 -22z"/>
<path d="M2734 719 c-35 -8 -42 -14 -46 -37 -6 -42 2 -62 23 -62 13 0 19 7 19
24 0 27 16 36 66 36 25 0 38 -6 50 -25 23 -36 11 -46 -49 -39 -42 5 -56 3 -66
-10 -7 -9 -20 -16 -27 -16 -18 0 -28 -42 -20 -84 5 -28 13 -37 41 -46 38 -13
110 1 118 23 3 9 10 7 24 -5 21 -19 93 -25 93 -8 0 6 1 13 2 18 1 4 -11 9 -28
12 -29 5 -29 5 -34 90 -3 47 -10 93 -16 103 -6 10 -28 22 -50 27 -45 11 -45
11 -100 -1z m99 -157 c16 -17 15 -20 -7 -41 -33 -31 -99 -27 -104 6 -2 15 5
26 25 37 38 20 67 20 86 -2z"/>
<path d="M3918 718 c-16 -5 -28 -14 -28 -19 0 -14 -20 -11 -37 7 -20 20 -77
15 -81 -8 -2 -12 5 -17 25 -20 l28 -3 0 -107 c0 -58 4 -110 8 -114 4 -5 16 -3
25 3 14 8 17 26 17 86 0 79 15 123 45 132 28 9 50 -5 50 -31 0 -36 38 -33 42
4 2 21 8 27 28 27 25 0 25 -1 27 -95 1 -52 2 -101 2 -107 1 -8 14 -13 31 -13
l30 0 0 120 c0 138 -2 141 -91 137 -30 -1 -63 1 -74 5 -11 3 -32 2 -47 -4z"/>
<path d="M4392 715 c-12 -9 -22 -21 -22 -26 0 -10 -28 -79 -52 -126 -14 -27
-27 -29 -34 -5 -6 17 -15 39 -50 120 -12 27 -24 42 -36 42 -35 0 -29 -28 26
-133 52 -101 54 -105 40 -133 -37 -72 -58 -94 -90 -94 -37 0 -60 -20 -42 -38
19 -19 83 -14 112 9 14 11 42 55 62 97 19 42 57 120 84 174 40 78 46 99 37
112 -11 15 -14 15 -35 1z"/>
<path d="M4545 725 c-5 -2 -22 -6 -36 -9 -30 -6 -44 -48 -28 -78 15 -27 37
-22 41 10 3 24 7 27 46 30 62 5 89 -25 62 -68 -7 -12 -12 -12 -22 -2 -25 25
-90 9 -135 -35 -34 -32 -1 -109 51 -118 32 -7 86 8 97 27 4 6 15 4 32 -7 31
-20 81 -16 85 7 2 11 -6 18 -27 23 l-31 7 0 76 c0 109 -4 118 -55 131 -44 11
-61 12 -80 6z m87 -168 c11 -17 -39 -57 -72 -57 -53 0 -65 50 -18 70 28 12 79
4 90 -13z"/>
<path d="M4970 720 c-51 -12 -77 -59 -48 -88 22 -22 46 -14 50 16 3 24 8 27
44 30 59 4 89 -28 64 -68 -7 -12 -12 -12 -22 -2 -22 22 -80 14 -117 -17 -42
-34 -47 -80 -12 -114 28 -28 101 -29 132 -1 16 15 22 16 29 5 5 -8 26 -15 51
-15 34 -1 44 3 47 17 3 12 -5 19 -27 23 l-31 7 0 81 c0 96 -9 113 -65 126 -46
11 -48 11 -95 0z m84 -150 c34 -13 33 -32 -3 -53 -34 -20 -72 -22 -89 -5 -19
19 -14 36 16 52 32 18 43 19 76 6z"/>
<path d="M3630 705 c-11 -13 -8 -17 19 -26 l31 -11 0 -104 0 -104 30 0 30 0 0
120 c0 108 -2 120 -19 130 -29 15 -77 12 -91 -5z"/>
</g>
</svg>
