<?xml version="1.0" standalone="no"?>
<!DOCTYPE svg PUBLIC "-//W3C//DTD SVG 20010904//EN"
 "http://www.w3.org/TR/2001/REC-SVG-20010904/DTD/svg10.dtd">
<svg version="1.0" xmlns="http://www.w3.org/2000/svg"
 width="200px" height="70px" viewBox="0 0 543.000000 153.000000"
 preserveAspectRatio="xMidYMid meet">
<metadata>
Created by potrace 1.10, written by Peter Selinger 2001-2011
</metadata>
<g transform="translate(0.000000,153.000000) scale(0.100000,-0.100000)"
fill="#000000" stroke="none">
<path d="M365 1203 l-25 -28 0 -360 c0 -198 3 -369 6 -380 3 -11 17 -28 30
-38 22 -17 49 -19 237 -20 l212 -2 0 -70 c0 -68 -1 -70 -25 -71 -50 -1 -60 -4
-60 -18 0 -8 7 -17 16 -20 26 -10 378 -7 394 4 22 14 -3 35 -43 35 l-32 0 0
70 0 70 214 1 214 0 28 32 29 32 0 368 0 367 -25 28 -26 27 -559 0 -559 0 -26
-27z m1143 -388 c2 -330 1 -361 -15 -373 -22 -16 -1053 -18 -1084 -2 -18 10
-19 25 -19 369 0 197 3 361 7 364 3 4 254 6 557 5 l551 -3 3 -360z m-480 -507
c2 -50 -1 -68 -10 -70 -42 -5 -106 -6 -125 -2 -21 4 -23 10 -23 68 0 34 3 66
7 70 4 4 39 5 78 4 l70 -3 3 -67z"/>
<path d="M1004 1013 c-4 -16 -13 -37 -20 -48 -8 -11 -14 -27 -14 -36 0 -10 -6
-30 -14 -46 -23 -45 -46 -100 -46 -111 0 -6 -8 -25 -17 -44 -37 -73 -41 -84
-43 -103 -4 -39 0 -46 22 -43 14 2 24 11 26 23 2 11 9 34 17 50 31 67 45 104
45 113 0 6 6 23 14 39 26 51 46 101 46 116 0 8 7 20 15 27 9 7 15 29 15 51 0
32 -3 39 -20 39 -13 0 -22 -9 -26 -27z"/>
<path d="M725 959 c-16 -10 -39 -24 -50 -29 -11 -6 -33 -18 -50 -27 -16 -9
-32 -19 -35 -22 -3 -3 -27 -17 -53 -31 -56 -29 -60 -55 -12 -80 17 -8 32 -17
35 -21 3 -3 25 -15 50 -28 25 -13 64 -36 88 -52 48 -33 70 -36 79 -13 8 21
-19 44 -110 89 -42 21 -84 46 -92 55 -13 14 -9 18 38 40 29 13 54 27 57 30 3
3 29 17 58 30 52 25 65 47 40 67 -9 7 -22 5 -43 -8z"/>
<path d="M1126 954 c-9 -22 -2 -30 52 -56 26 -13 49 -25 52 -28 3 -3 28 -17
57 -30 47 -22 51 -26 37 -41 -8 -9 -52 -34 -98 -57 -90 -45 -112 -63 -102 -87
8 -22 30 -18 78 14 24 16 63 39 88 52 25 13 47 26 50 29 3 4 19 13 35 21 48
23 44 50 -12 79 -26 14 -50 28 -53 32 -3 4 -17 12 -30 18 -14 5 -38 19 -55 30
-33 22 -72 40 -85 40 -4 0 -11 -7 -14 -16z"/>
<path d="M1654 919 c-7 -12 -6 -410 1 -418 6 -5 167 -8 183 -3 8 3 12 25 12
64 0 59 0 59 -27 56 -22 -2 -28 -8 -28 -28 0 -23 -4 -25 -45 -25 l-45 0 0 180
c0 177 0 180 -22 183 -11 2 -24 -2 -29 -9z"/>
<path d="M1899 914 c-11 -13 -11 -21 3 -44 11 -19 13 -32 5 -45 -9 -17 -11
-314 -2 -324 3 -2 45 -5 94 -8 81 -3 90 -1 95 15 13 41 -2 51 -77 54 l-72 3 0
55 0 55 72 3 c73 3 90 13 77 47 -9 22 -119 21 -128 -1 -12 -31 -27 -2 -21 41
4 24 2 51 -4 63 -14 26 1 32 84 32 53 0 65 3 70 19 13 43 -2 51 -95 51 -68 0
-90 -4 -101 -16z"/>
<path d="M2183 923 c-7 -3 -13 -15 -13 -28 0 -13 6 -27 13 -32 15 -10 169 -4
181 7 5 5 6 20 2 34 -6 25 -8 25 -89 24 -45 -1 -88 -3 -94 -5z"/>
<path d="M2447 923 c-10 -9 -9 -423 1 -424 44 -7 175 -2 180 6 4 5 7 33 7 60
0 44 -3 50 -22 53 -17 3 -22 -2 -25 -25 -3 -26 -7 -28 -51 -31 l-48 -3 2 174
c1 96 -2 180 -5 186 -8 12 -29 15 -39 4z"/>
<path d="M2710 918 c-30 -11 -33 -74 -20 -421 0 -5 10 -7 23 -5 20 3 22 8 22
63 l0 60 65 0 65 0 0 -60 c0 -60 0 -60 30 -60 l30 0 2 207 c1 148 -2 210 -10
215 -15 9 -183 10 -207 1z m155 -148 l0 -85 -50 -3 c-27 -2 -54 -7 -60 -13 -5
-5 -12 -9 -17 -9 -8 0 -9 179 -1 193 3 4 32 7 66 5 l62 -3 0 -85z"/>
<path d="M3122 922 c-9 -7 -12 -57 -10 -218 l3 -209 30 0 30 0 -4 156 c-2 105
0 159 8 163 6 4 13 -5 16 -21 3 -15 12 -51 20 -79 8 -28 15 -60 15 -72 0 -15
6 -22 20 -22 24 0 40 28 40 70 0 17 5 41 12 53 7 12 14 40 17 61 4 22 12 41
19 44 12 4 13 -26 7 -172 -7 -160 -6 -176 9 -182 37 -14 41 12 36 226 l-5 205
-31 3 c-40 4 -53 -13 -64 -81 -17 -107 -60 -134 -60 -39 0 27 -18 86 -33 110
-9 13 -55 16 -75 4z"/>
<path d="M3485 920 c-11 -18 -8 -411 3 -422 5 -5 18 -8 27 -6 16 3 17 23 18
218 0 210 0 215 -20 218 -12 2 -24 -2 -28 -8z"/>
<path d="M3625 922 c-11 -11 -4 -53 10 -58 8 -4 15 -12 15 -19 0 -7 -7 -18
-15 -25 -12 -10 -15 -42 -15 -172 l0 -159 28 3 27 3 1 180 2 180 63 0 63 0 0
-85 1 -85 -40 -3 c-68 -5 -70 -7 -42 -55 14 -23 36 -62 50 -87 20 -36 31 -46
56 -48 39 -4 41 18 6 56 -39 42 -40 59 -6 88 l31 26 0 112 c0 149 1 148 -128
151 -56 1 -104 0 -107 -3z"/>
<path d="M3939 928 c0 -2 -1 -100 -2 -218 l-2 -215 25 0 25 0 0 215 0 215 -22
3 c-13 2 -23 2 -24 0z"/>
<path d="M4067 924 c-6 -6 1 -243 9 -281 3 -17 12 -22 42 -25 l37 -3 0 -57 c0
-65 5 -73 40 -64 24 6 25 10 23 64 l-3 57 35 5 c30 4 37 10 48 44 8 25 12 80
10 150 l-3 111 -27 3 c-18 2 -28 -2 -29 -10 -1 -7 -2 -62 -2 -123 l-2 -110
-59 -3 c-32 -2 -62 1 -66 5 -4 4 -4 55 0 113 4 65 3 110 -3 118 -10 13 -39 16
-50 6z"/>
<path d="M4401 913 c-13 -9 -17 -44 -23 -210 -3 -109 -3 -202 2 -206 4 -5 18
-7 31 -5 22 3 24 8 24 63 l0 60 65 0 65 0 0 -60 c0 -57 1 -60 25 -60 l25 0 1
208 c0 136 -3 210 -10 215 -19 11 -188 8 -205 -5z m164 -143 l0 -85 -50 -3
c-31 -2 -53 -9 -58 -18 -17 -31 -27 1 -27 90 0 51 3 96 7 100 4 4 34 6 68 4
l60 -3 0 -85z"/>
<path d="M4707 923 c-4 -3 -7 -100 -7 -215 0 -191 1 -208 18 -209 65 -6 160
-4 175 3 15 8 17 19 15 61 -3 48 -5 52 -30 55 -25 3 -28 0 -28 -27 0 -30 -1
-31 -46 -31 l-45 0 1 173 c1 94 1 178 1 185 -1 13 -43 17 -54 5z"/>
<path d="M4959 896 c-18 -28 -19 -45 -13 -206 3 -96 7 -181 10 -187 2 -7 13
-13 24 -13 22 0 22 0 24 75 l1 50 65 0 65 0 0 -60 c0 -57 1 -60 25 -60 l25 0
2 207 c2 152 0 209 -9 214 -7 4 -54 8 -106 9 l-94 2 -19 -31z m176 -126 l0
-85 -50 -3 c-31 -2 -53 -9 -58 -18 -17 -31 -27 1 -27 90 0 51 3 96 7 100 4 4
34 6 68 4 l60 -3 0 -85z"/>
<path d="M2182 828 c-17 -17 -17 -324 1 -331 6 -2 49 -5 94 -6 80 -1 83 -1 89
23 9 39 -2 46 -77 46 -39 0 -69 4 -70 10 0 6 -1 28 -1 50 0 22 1 44 1 50 1 5
34 10 74 12 69 3 72 4 72 28 0 24 -4 25 -59 28 -46 2 -62 0 -68 -13 -15 -26
-29 -6 -22 31 7 36 -1 84 -14 84 -4 0 -13 -5 -20 -12z"/>
</g>
</svg>
